# xmcd
#
# Track frame offsets: 
#        150
#        20148
#        47203
#        72358
#        91242
#        113831
#        128714
#        144810
#        159980
#        187752
#        194095
#        211906
#
# Disc length: 3055 seconds
#
# Revision: 0
# Processed by: cddbd v1.5.2PL0 Copyright (c) Steve Scherf et al.
# Submitted via: ExactAudioCopy v1.1
#
DISCID=a40bed0c
DTITLE=Alexander O'Neal - My Gift To You
DYEAR=1988
DGENRE=Soul
TTITLE0=My Gift To You
TTITLE1=Sleigh Ride
TTITLE2=Our First Christmas
TTITLE3=Remember Why (It's Christmas)
TTITLE4=The Little Drummer Boy
TTITLE5=The Christmas Song
TTITLE6=This Christmas
TTITLE7=Winter Wonderland
TTITLE8=Thank You For A Good Year
TTITLE9=Remember Why (It's Christmas) [reprise]
TTITLE10=The Little Drummer Boy [instrumental]
TTITLE11=Sleigh Ride [instrumental]
EXTD=
EXTT0=
EXTT1=
EXTT2=
EXTT3=
EXTT4=
EXTT5=
EXTT6=
EXTT7=
EXTT8=
EXTT9=
EXTT10=
EXTT11=
PLAYORDER=
